<?xml version="1.0" encoding="UTF-8"?>
<svg xmlns="http://www.w3.org/2000/svg" xmlns:xlink="http://www.w3.org/1999/xlink" width="350.8pt" height="471.2pt" viewBox="0 0 350.8 471.2" version="1.1">
<defs>
<clipPath id="clip1">
  <path d="M 12 4 L 339 4 L 339 471.199219 L 12 471.199219 Z M 12 4 "/>
</clipPath>
</defs>
<g id="surface1">
<g clip-path="url(#clip1)" clip-rule="nonzero">
<path style=" stroke:none;fill-rule:evenodd;fill:rgb(10.594177%,9.812927%,9.423828%);fill-opacity:1;" d="M 63.742188 28.253906 C 68.445313 64.519531 90.351563 50.933594 99.699219 76.027344 C 88.78125 71.855469 77.804688 75.785156 71.285156 59.179688 C 70.785156 59.515625 70.28125 59.851563 69.777344 60.1875 C 64.195313 53.746094 63.613281 41.414063 63.742188 28.253906 Z M 180.386719 33.585938 C 180.683594 35.597656 180.9375 37.050781 181.261719 38.535156 C 183.605469 41.960938 187.953125 42.714844 188.667969 40.796875 C 184.613281 37.84375 185.824219 36.109375 189.675781 37.28125 C 188.839844 36.335938 188.074219 35.425781 187.363281 34.539063 C 191.167969 34.816406 194.972656 35.230469 198.78125 35.78125 C 198.761719 36.554688 198.875 37.480469 199.144531 38.5625 C 199.726563 40.910156 196.671875 46.402344 194.871094 51.636719 C 193.867188 58.425781 196.378906 65.214844 197.132813 72.003906 C 198.703125 86.804688 203.144531 90.996094 207.945313 101.164063 C 211.742188 107.347656 207.953125 113.132813 206.433594 115.753906 C 205.703125 119.441406 205.285156 123.378906 205.554688 127.066406 C 207.484375 119.863281 210.292969 115.421875 213.222656 114.246094 C 213.429688 136.761719 210.414063 153.066406 205.933594 166.539063 C 210.855469 155.925781 211.96875 148.695313 213.726563 140.894531 C 214.304688 131.507813 215.03125 122.121094 214.230469 112.734375 C 216.285156 108.121094 216.246094 102.128906 214.734375 99.660156 C 213.8125 101.003906 212.890625 102.34375 211.96875 103.683594 C 206.847656 98.710938 201.503906 88.476563 202.664063 74.769531 C 203.042969 70.28125 208.546875 55.140625 208.949219 59.933594 C 205.765625 79.398438 210.296875 80.984375 212.21875 84.828125 C 211.1875 75.019531 213.375 65.214844 213.222656 55.410156 C 211.4375 49.351563 209.847656 42.769531 206.707031 37.117188 C 221.21875 39.921875 235.746094 44.6875 250.289063 51.425781 C 235.527344 44.109375 220.777344 38.964844 206.046875 35.984375 L 205.933594 35.796875 C 203.714844 32.203125 199.660156 31.3125 198.902344 34.710938 C 194.726563 34.0625 190.554688 33.597656 186.382813 33.300781 C 178.175781 22.617188 178.570313 16.578125 175.609375 15.054688 C 179.210938 19.226563 179.273438 25.488281 180.386719 33.585938 Z M 170.496094 33.609375 C 171.617188 25.496094 171.675781 19.230469 175.28125 15.054688 C 172.316406 16.578125 172.714844 22.632813 164.472656 33.339844 C 160.316406 33.652344 156.160156 34.136719 152.003906 34.796875 C 151.296875 31.300781 147.195313 32.175781 144.957031 35.796875 L 144.757813 36.121094 C 130.289063 39.121094 115.839844 44.222656 101.402344 51.425781 C 115.625 44.789063 129.859375 40.066406 144.113281 37.246094 C 141.015625 42.871094 139.4375 49.394531 137.664063 55.410156 C 137.515625 65.214844 139.703125 75.019531 138.671875 84.828125 C 140.59375 80.984375 145.125 79.398438 141.9375 59.933594 C 142.339844 55.140625 147.84375 70.28125 148.226563 74.769531 C 149.386719 88.476563 144.039063 98.710938 138.921875 103.683594 C 138 102.34375 137.078125 101.003906 136.15625 99.660156 C 134.644531 102.128906 134.605469 108.121094 136.660156 112.734375 C 135.859375 122.121094 136.585938 131.507813 137.164063 140.894531 C 138.917969 148.695313 140.03125 155.925781 144.957031 166.539063 C 140.472656 153.066406 137.457031 136.761719 137.664063 114.246094 C 140.597656 115.421875 143.40625 119.863281 145.332031 127.066406 C 145.605469 123.378906 145.1875 119.441406 144.453125 115.753906 C 142.9375 113.132813 139.148438 107.347656 142.945313 101.164063 C 147.746094 90.996094 152.1875 86.804688 153.757813 72.003906 C 154.511719 65.214844 157.023438 58.425781 156.019531 51.636719 C 154.21875 46.402344 151.160156 40.910156 151.746094 38.5625 C 152.003906 37.515625 152.117188 36.621094 152.109375 35.863281 C 155.902344 35.300781 159.695313 34.878906 163.488281 34.589844 C 162.789063 35.453125 162.035156 36.355469 161.214844 37.28125 C 165.066406 36.109375 166.277344 37.84375 162.21875 40.796875 C 162.933594 42.714844 167.285156 41.960938 169.628906 38.535156 C 169.949219 37.058594 170.199219 35.613281 170.496094 33.609375 Z M 287.144531 28.253906 C 282.445313 64.519531 260.539063 50.933594 251.191406 76.027344 C 262.105469 71.855469 273.085938 75.785156 279.601563 59.179688 C 280.105469 59.515625 280.609375 59.851563 281.109375 60.1875 C 286.695313 53.746094 287.277344 41.414063 287.144531 28.253906 Z M 212.054688 334.308594 C 217.820313 338.203125 222.953125 342.828125 227.285156 348.023438 L 226.273438 347.953125 C 218.421875 351.050781 210.578125 353.773438 205.425781 353.855469 C 202.496094 357.078125 199.566406 360.300781 196.636719 363.523438 C 193.367188 364.550781 188.878906 364.734375 189.980469 362.519531 C 192.449219 362.347656 193.996094 361.09375 194.625 358.746094 C 200.019531 360.519531 201.40625 353.519531 203.667969 350.335938 C 206.773438 349.65625 208.386719 347.703125 209.320313 345.1875 C 207.183594 347.261719 205.050781 348.59375 202.914063 348.328125 C 204.671875 345.648438 206.429688 342.96875 208.1875 340.289063 C 194.261719 356.640625 186.355469 341.410156 175.445313 341.921875 C 164.535156 341.410156 156.625 356.640625 142.699219 340.289063 C 144.457031 342.96875 146.214844 345.648438 147.972656 348.328125 C 145.839844 348.59375 143.703125 347.261719 141.570313 345.1875 C 142.503906 347.703125 144.113281 349.65625 147.222656 350.335938 C 149.484375 353.519531 150.867188 360.519531 156.261719 358.746094 C 156.890625 361.09375 158.441406 362.347656 160.910156 362.519531 C 162.011719 364.734375 157.523438 364.550781 154.253906 363.523438 C 151.324219 360.300781 148.394531 357.078125 145.464844 353.855469 C 140.3125 353.773438 132.46875 351.050781 124.617188 347.953125 L 123.601563 348.023438 C 127.9375 342.828125 133.070313 338.203125 138.835938 334.308594 C 135.667969 331.695313 141.289063 324.183594 136.867188 320.0625 C 115.238281 333.339844 100.789063 357.363281 100.789063 384.785156 C 100.789063 425.410156 134.105469 460.285156 175.445313 460.464844 C 216.734375 460.644531 250.101563 425.097656 250.101563 384.785156 C 250.101563 357.363281 235.652344 333.339844 214.023438 320.0625 C 209.601563 324.183594 215.222656 331.695313 212.054688 334.308594 Z M 175.386719 349.214844 L 175.386719 349.277344 L 175.445313 349.246094 L 175.503906 349.277344 L 175.503906 349.214844 L 176.417969 348.703125 C 177.421875 348.5625 178.050781 352.242188 179.433594 353.726563 C 180.417969 353.789063 181.902344 349.773438 183.324219 349.578125 C 184.601563 349.898438 186.109375 352.054688 187.71875 354.039063 C 189.402344 352.574219 190.105469 351.019531 191.164063 350.824219 C 192.097656 350.652344 193.382813 350.988281 194.878906 352.09375 C 197.421875 351.496094 197.886719 349.910156 202.414063 350.589844 C 201.742188 352.097656 200.988281 353.601563 199.648438 355.109375 C 198.644531 355.152344 198.226563 354.023438 197.890625 352.722656 C 196.539063 353.414063 195.117188 354.019531 191.738281 351.84375 C 190.210938 351.222656 189.476563 357.960938 188.097656 357.496094 C 186.792969 357.054688 186.296875 352.785156 183.074219 350.964844 C 181.902344 352.683594 180.730469 354.398438 179.558594 356.113281 C 178.511719 353.9375 177.464844 351.761719 176.417969 349.578125 L 175.445313 350.289063 L 174.472656 349.578125 C 173.425781 351.761719 172.378906 353.9375 171.332031 356.113281 C 170.160156 354.398438 168.988281 352.683594 167.816406 350.964844 C 164.59375 352.785156 164.097656 357.054688 162.792969 357.496094 C 161.414063 357.960938 160.679688 351.222656 159.152344 351.84375 C 155.769531 354.019531 154.351563 353.414063 152.996094 352.722656 C 152.664063 354.023438 152.246094 355.152344 151.238281 355.109375 C 149.898438 353.601563 149.148438 352.097656 148.476563 350.589844 C 153.003906 349.910156 153.46875 351.496094 156.011719 352.09375 C 157.507813 350.988281 158.789063 350.652344 159.726563 350.824219 C 160.785156 351.019531 161.484375 352.574219 163.167969 354.039063 C 164.78125 352.054688 166.285156 349.898438 167.5625 349.578125 C 168.988281 349.773438 170.472656 353.789063 171.457031 353.726563 C 172.835938 352.242188 173.464844 348.5625 174.472656 348.703125 Z M 175.445313 375.355469 C 180.394531 376.289063 182.375 372.535156 191.613281 373.945313 C 197.621094 374.972656 203.605469 385.5625 211.578125 383.742188 C 208.890625 381.410156 211.941406 382.183594 217.605469 384.367188 C 202.867188 374.238281 199.847656 370.046875 204.675781 357.304688 C 212.292969 355.296875 221.226563 353.347656 228.847656 351.339844 C 228.929688 351.074219 229.035156 350.726563 229.148438 350.351563 C 237.605469 361.421875 242.558594 374.84375 242.558594 389.3125 C 242.558594 424.523438 216.042969 457.496094 175.445313 457.496094 C 134.84375 457.496094 108.332031 424.523438 108.332031 389.3125 C 108.332031 374.84375 113.285156 361.421875 121.742188 350.351563 C 121.855469 350.726563 121.960938 351.074219 122.042969 351.339844 C 129.660156 353.347656 138.59375 355.296875 146.214844 357.304688 C 151.039063 370.046875 148.023438 374.238281 133.28125 384.367188 C 138.945313 382.183594 142 381.410156 139.308594 383.742188 C 147.28125 385.5625 153.269531 374.972656 159.277344 373.945313 C 168.511719 372.535156 170.496094 376.289063 175.445313 375.355469 Z M 277.953125 10.28125 C 276.65625 27.820313 269.710938 42.636719 250.328125 51.46875 C 266.582031 41.695313 274.09375 27.085938 277.953125 10.28125 Z M 251.066406 77.195313 C 249.371094 75.679688 248.332031 83.035156 248.121094 92.230469 C 249.480469 78.859375 251.828125 78.777344 251.066406 77.195313 Z M 215.542969 96.175781 C 216.515625 91.464844 217.382813 86.730469 220.0625 82.363281 C 213.953125 81.859375 218.789063 59.074219 221.695313 59.003906 C 224.621094 58.933594 229.222656 68.570313 224.835938 76.203125 C 222.144531 80.914063 219.527344 86.648438 217.175781 96.050781 C 217.71875 104.210938 218.261719 112.371094 218.808594 120.535156 C 219.5625 117.691406 220.316406 114.84375 221.066406 111.996094 C 226.839844 126.164063 230.578125 143.296875 218.429688 177.796875 C 218.117188 178.683594 212.84375 184.816406 211.523438 187.019531 C 208.695313 191.738281 200.835938 205.789063 200.222656 204.289063 C 200.222656 203.914063 200.222656 203.539063 200.222656 203.164063 C 198.328125 204.09375 196.550781 204.976563 194.320313 206.242188 C 185.214844 184.628906 195.507813 180.210938 194.949219 164.234375 C 185.449219 173.03125 190.851563 178.046875 185.90625 201.78125 C 185.085938 200.371094 184.007813 199.472656 182.015625 200.402344 C 181.972656 196.503906 182.226563 193.078125 183.519531 191.359375 C 179.949219 179.496094 184.273438 171.015625 182.769531 160.84375 C 182.019531 154.824219 182.675781 150.613281 183.144531 146.152344 C 184.410156 147.480469 185.269531 149.21875 186.03125 151.050781 C 186.148438 146.894531 187.527344 147.023438 187.445313 144.117188 C 187.273438 138.164063 177.878906 123.386719 177.679688 120.300781 C 177.640625 119.671875 176.59375 119.257813 175.734375 119.011719 C 175.808594 118.945313 175.886719 118.878906 175.964844 118.8125 C 175.824219 118.84375 175.644531 118.882813 175.445313 118.933594 C 175.242188 118.882813 175.0625 118.84375 174.921875 118.8125 C 175.003906 118.878906 175.078125 118.945313 175.152344 119.011719 C 174.292969 119.253906 173.25 119.671875 173.207031 120.300781 C 173.011719 123.386719 163.617188 138.164063 163.445313 144.117188 C 163.363281 147.023438 164.738281 146.894531 164.855469 151.050781 C 165.621094 149.21875 166.476563 147.480469 167.746094 146.152344 C 168.210938 150.613281 168.867188 154.824219 168.121094 160.84375 C 166.617188 171.015625 170.941406 179.496094 167.367188 191.359375 C 168.664063 193.078125 168.917969 196.503906 168.875 200.402344 C 166.882813 199.472656 165.804688 200.371094 164.984375 201.78125 C 160.039063 178.046875 165.441406 173.03125 155.941406 164.234375 C 155.382813 180.210938 165.675781 184.628906 156.570313 206.242188 C 154.339844 204.976563 152.5625 204.09375 150.667969 203.164063 C 150.667969 203.539063 150.667969 203.914063 150.667969 204.289063 C 150.050781 205.789063 142.195313 191.738281 139.367188 187.019531 C 138.042969 184.816406 132.769531 178.683594 132.457031 177.796875 C 120.308594 143.296875 124.050781 126.164063 129.820313 111.996094 C 130.574219 114.84375 131.328125 117.691406 132.082031 120.535156 C 132.625 112.371094 133.171875 104.210938 133.714844 96.050781 C 131.359375 86.648438 128.742188 80.914063 126.054688 76.203125 C 121.664063 68.570313 126.269531 58.933594 129.195313 59.003906 C 132.101563 59.074219 136.9375 81.859375 130.824219 82.363281 C 133.507813 86.730469 134.375 91.464844 135.347656 96.175781 C 136.984375 82.648438 134.707031 57.949219 132.585938 53.480469 C 133.671875 51.261719 134.507813 48.953125 135.09375 46.574219 C 131.097656 55.128906 116.035156 57.503906 115.128906 59.382813 C 117.929688 64.878906 119.019531 72.519531 119.148438 81.355469 C 115.378906 87.132813 117.382813 91.996094 115.378906 97.304688 C 115.355469 98.503906 109.757813 101.765625 110.609375 106.722656 C 109.589844 108.210938 108.363281 110.511719 106.839844 114.007813 C 106.265625 116.140625 106.289063 118.277344 106.714844 120.410156 C 105.382813 121.621094 105.046875 123.445313 104.582031 125.183594 C 103.996094 125.265625 103.410156 125.351563 102.824219 125.433594 C 103.226563 118.609375 102.960938 111.789063 102.195313 104.964844 C 101.632813 100.113281 90.945313 88.144531 80.847656 74.324219 C 84.125 79.640625 86.945313 84.953125 89.386719 90.273438 C 88.378906 96.863281 92.671875 98.664063 95.664063 102.328125 C 96.179688 106.578125 97.414063 110.714844 99.933594 114.632813 C 102.441406 117.65625 100.429688 131.632813 97.421875 135.101563 C 96.328125 132.84375 94.621094 130.578125 92.023438 128.320313 C 91.394531 128.761719 90.851563 129.222656 90.894531 129.828125 C 91.925781 133.132813 93.042969 136.441406 94.410156 139.746094 C 94.867188 140.105469 93.488281 141.613281 91.269531 143.640625 C 85.34375 143.546875 85.371094 148.214844 83.109375 151.050781 C 79.3125 142.371094 75.316406 130.71875 71.929688 128.195313 C 76.644531 139.378906 79.089844 148.898438 76.953125 155.070313 C 61.425781 148.609375 55.457031 137.121094 53.972656 131.964844 C 58.242188 136.066406 62.511719 140.164063 66.78125 144.269531 C 70.550781 142.847656 72.308594 141.253906 72.058594 139.496094 C 69.890625 133.363281 63.804688 128.714844 64.898438 118.902344 C 67.234375 117.039063 66.445313 113.402344 66.28125 110.113281 C 69.003906 109.839844 71.722656 110.71875 74.441406 112.121094 C 68.835938 108.5625 64.730469 104.335938 62.136719 99.441406 C 57.308594 106.355469 52.515625 113.1875 48.699219 117.398438 C 46.902344 115.179688 45.101563 112.960938 43.300781 110.742188 C 49.902344 141.726563 59.449219 142.6875 70.550781 155.695313 C 76.605469 162.789063 73.710938 165.085938 67.914063 161.097656 C 65.199219 162.589844 62.804688 161.347656 61.007813 156.953125 C 59.289063 153.644531 51.421875 148.953125 47.570313 141.382813 C 48.992188 145.566406 50.417969 149.753906 51.839844 153.9375 C 46.519531 149.953125 43.492188 140.730469 40.539063 131.335938 C 36.628906 141.261719 31.3125 153.230469 31.496094 157.203125 C 28.859375 154.191406 26.222656 151.175781 23.585938 148.164063 C 35.804688 188.992188 65.710938 191.234375 78.460938 201.03125 C 81.183594 203.164063 83.234375 203.453125 84.613281 201.910156 C 84.238281 202.828125 83.859375 203.746094 83.484375 204.671875 C 81.058594 204.484375 79.550781 204.0625 78.460938 203.539063 C 77.070313 207.4375 82.238281 211.164063 78.335938 213.839844 C 53.917969 204.695313 38.792969 191.921875 28.105469 177.421875 C 27.46875 209.453125 30.742188 251.644531 71.050781 296.464844 C 71.050781 301.195313 71.519531 305.988281 71.519531 310.71875 C 72.484375 310.84375 72.976563 310.90625 73.941406 311.03125 C 75.570313 308.835938 77.671875 306.910156 80.46875 305.382813 C 91.023438 313.871094 101.9375 321.039063 113.496094 325.851563 C 115.675781 323.546875 117.933594 321.246094 120.78125 318.945313 C 107.886719 314.382813 96.835938 307.058594 86.625 298.476563 C 95.382813 291.828125 105.332031 287.890625 117.265625 288.429688 C 120.023438 288.640625 120.691406 289.855469 119.273438 292.070313 C 119.273438 292.742188 119.273438 293.410156 119.273438 294.078125 C 119.902344 294.289063 120.527344 294.496094 121.15625 294.703125 C 126.132813 302.820313 122.835938 308.429688 127.058594 310.027344 C 127.550781 311.574219 125.640625 312.566406 125.804688 314.925781 C 128.0625 313.539063 130.324219 312.164063 132.585938 310.78125 C 133.761719 310.382813 133.949219 309.539063 133.464844 308.394531 C 131.917969 303.664063 131.121094 298.601563 131.078125 293.203125 C 131.621094 293.496094 132.445313 294.066406 132.992188 294.359375 C 132.738281 291.035156 132.488281 288.785156 132.988281 289.085938 C 133.375 289.316406 133.488281 291.921875 135.097656 294.328125 C 132.328125 275.371094 122.714844 273.40625 125.785156 268.746094 C 131 268.65625 134.226563 271.011719 135.347656 284.035156 C 135.863281 281.355469 136.042969 278.675781 135.722656 275.996094 C 136.226563 274.949219 136.726563 273.90625 137.230469 272.859375 C 135.886719 268.898438 136.601563 267.730469 137.605469 266.953125 C 141.089844 266.828125 139.765625 276.613281 138.234375 281.523438 C 139.578125 285.464844 138.332031 292.128906 139.992188 294.828125 C 141.023438 291.195313 138.640625 286.578125 141.125 285.164063 C 141.980469 284.664063 142.777344 283.910156 143.132813 281.398438 C 145.042969 260.929688 135.996094 258.867188 121.527344 255.808594 C 102.542969 251.789063 76.585938 246.445313 87.878906 207.183594 C 88.675781 210.027344 89.46875 212.871094 90.265625 215.722656 C 88.773438 206.585938 92.574219 201.644531 90.769531 200.152344 C 85.410156 193.613281 85.933594 187.511719 84.304688 185.367188 C 81.082031 181.648438 81.074219 180.296875 81.726563 180.058594 C 83.820313 180.558594 85.410156 180.726563 86.5 180.5625 C 86.585938 183.855469 89.800781 182.011719 89.511719 192.617188 C 90 191.03125 90.828125 190.058594 92.148438 189.980469 C 92.992188 193.535156 94.199219 196.84375 96.542969 199.398438 C 98.253906 201.203125 91.671875 204.980469 98.929688 210.699219 C 100.121094 213.796875 100.667969 216.894531 100.6875 219.992188 C 102.121094 216.039063 104.660156 212.21875 107.59375 208.4375 C 114.148438 245.253906 143.652344 239.011719 148.15625 250.128906 C 144.179688 248.035156 140.203125 245.691406 136.226563 243.597656 C 136.9375 244.394531 137.648438 245.191406 138.359375 245.984375 C 121.257813 245.679688 109.523438 240.003906 101.460938 230.65625 C 112.976563 254.535156 139.132813 246.28125 145.710938 256.808594 C 144.628906 252.574219 143.949219 249.402344 144.707031 250.019531 C 147.527344 250.601563 150.660156 257.6875 156.773438 264.601563 C 155.601563 246.671875 150.164063 247.160156 152.5 235.433594 C 146.234375 219.117188 87.769531 201.941406 93.28125 168.503906 C 97.71875 157.519531 101.859375 133.78125 108.222656 129.453125 C 108.179688 132.925781 108.140625 136.398438 108.097656 139.871094 C 113.582031 120.789063 121.074219 83.367188 123.417969 83.367188 C 125.546875 85.503906 121.535156 99.480469 122.285156 120.535156 C 124.492188 119.023438 124.527344 115.746094 125.390625 114.410156 C 126.105469 113.300781 127.195313 113.335938 126.429688 116.390625 C 117.242188 145.683594 121.410156 163.972656 129.320313 179.179688 C 125.207031 174.953125 121.839844 169.546875 118.898438 163.484375 C 127.8125 196.472656 157.167969 210.585938 156.695313 228.90625 C 159.332031 232.925781 161.96875 236.945313 164.605469 240.960938 C 164.3125 237.238281 164.019531 233.511719 163.726563 229.785156 C 164.984375 231.585938 166.238281 233.386719 167.492188 235.1875 C 167.453125 233.511719 167.410156 231.835938 167.367188 230.164063 C 167.621094 230.414063 167.871094 230.664063 168.121094 230.914063 C 168.960938 229.449219 169.796875 227.984375 170.632813 226.519531 C 171.304688 232.421875 171.972656 238.324219 172.644531 244.226563 C 173.472656 251.101563 174.300781 257.976563 175.128906 264.851563 C 174.632813 240.640625 172.625 215.171875 172.128906 190.953125 C 171.757813 172.714844 172.890625 155.730469 172.515625 137.488281 C 171.984375 136.617188 171.332031 135.847656 169.628906 135.980469 C 169.632813 139.28125 167.023438 147.496094 165.734375 146.613281 C 164.402344 145.695313 167.136719 138.140625 167.621094 137.738281 C 175.382813 128.976563 170.699219 123.886719 175.445313 119.28125 C 180.191406 123.886719 175.507813 128.976563 183.269531 137.738281 C 183.753906 138.140625 186.488281 145.695313 185.15625 146.613281 C 183.867188 147.496094 181.253906 139.28125 181.261719 135.980469 C 179.558594 135.847656 178.90625 136.617188 178.371094 137.488281 C 178 155.730469 179.132813 172.714844 178.757813 190.953125 C 178.261719 215.171875 176.257813 240.640625 175.761719 264.851563 C 176.589844 257.976563 177.417969 251.101563 178.246094 244.226563 C 178.917969 238.324219 179.585938 232.421875 180.257813 226.519531 C 181.09375 227.984375 181.929688 229.449219 182.769531 230.914063 C 183.019531 230.664063 183.269531 230.414063 183.519531 230.164063 C 183.480469 231.835938 183.4375 233.511719 183.394531 235.1875 C 184.652344 233.386719 185.90625 231.585938 187.164063 229.785156 C 186.871094 233.511719 186.578125 237.238281 186.285156 240.960938 C 188.921875 236.945313 191.558594 232.925781 194.195313 228.90625 C 193.722656 210.585938 223.078125 196.472656 231.992188 163.484375 C 229.046875 169.546875 225.683594 174.953125 221.570313 179.179688 C 229.480469 163.972656 233.648438 145.683594 224.457031 116.390625 C 223.695313 113.335938 224.78125 113.300781 225.496094 114.410156 C 226.359375 115.746094 226.394531 119.023438 228.601563 120.535156 C 229.355469 99.480469 225.34375 85.503906 227.472656 83.367188 C 229.816406 83.367188 237.308594 120.789063 242.792969 139.871094 C 242.75 136.398438 242.707031 132.925781 242.667969 129.453125 C 249.03125 133.78125 253.171875 157.519531 257.609375 168.503906 C 263.121094 201.941406 204.65625 219.117188 198.390625 235.433594 C 200.722656 247.160156 195.289063 246.671875 194.117188 264.601563 C 200.230469 257.6875 203.363281 250.601563 206.183594 250.019531 C 206.941406 249.402344 206.261719 252.574219 205.179688 256.808594 C 211.757813 246.28125 237.914063 254.535156 249.429688 230.65625 C 241.367188 240.003906 229.632813 245.679688 212.527344 245.984375 C 213.242188 245.191406 213.953125 244.394531 214.664063 243.597656 C 210.6875 245.691406 206.710938 248.035156 202.734375 250.128906 C 207.238281 239.011719 236.738281 245.253906 243.292969 208.4375 C 246.230469 212.21875 248.769531 216.039063 250.203125 219.992188 C 250.21875 216.894531 250.769531 213.796875 251.960938 210.699219 C 259.21875 204.980469 252.636719 201.203125 254.34375 199.398438 C 256.691406 196.84375 257.898438 193.535156 258.742188 189.980469 C 260.0625 190.058594 260.890625 191.03125 261.378906 192.617188 C 261.089844 182.011719 264.300781 183.855469 264.390625 180.5625 C 265.480469 180.726563 267.070313 180.558594 269.164063 180.058594 C 269.816406 180.296875 269.808594 181.648438 266.585938 185.367188 C 264.957031 187.511719 265.476563 193.613281 260.121094 200.152344 C 258.316406 201.644531 262.117188 206.585938 260.625 215.722656 C 261.417969 212.871094 262.214844 210.027344 263.011719 207.183594 C 274.300781 246.445313 248.34375 251.789063 229.363281 255.808594 C 214.894531 258.867188 205.847656 260.929688 207.757813 281.398438 C 208.113281 283.910156 208.910156 284.664063 209.765625 285.164063 C 212.25 286.578125 209.867188 291.195313 210.898438 294.828125 C 212.558594 292.128906 211.3125 285.464844 212.65625 281.523438 C 211.125 276.613281 209.800781 266.828125 213.28125 266.953125 C 214.289063 267.730469 215 268.898438 213.660156 272.859375 C 214.160156 273.90625 214.664063 274.949219 215.164063 275.996094 C 214.847656 278.675781 215.027344 281.355469 215.542969 284.035156 C 216.660156 271.011719 219.890625 268.65625 225.105469 268.746094 C 228.171875 273.40625 218.5625 275.371094 215.792969 294.328125 C 217.402344 291.921875 217.515625 289.316406 217.902344 289.085938 C 218.402344 288.785156 218.152344 291.035156 217.898438 294.359375 C 218.441406 294.066406 219.269531 293.496094 219.8125 293.203125 C 219.769531 298.601563 218.972656 303.664063 217.425781 308.394531 C 216.941406 309.539063 217.128906 310.382813 218.304688 310.78125 C 220.566406 312.164063 222.828125 313.539063 225.085938 314.925781 C 225.246094 312.566406 223.339844 311.574219 223.832031 310.027344 C 228.054688 308.429688 224.757813 302.820313 229.734375 294.703125 C 230.359375 294.496094 230.988281 294.289063 231.617188 294.078125 C 231.617188 293.410156 231.617188 292.742188 231.617188 292.070313 C 230.199219 289.855469 230.867188 288.640625 233.625 288.429688 C 245.554688 287.890625 255.507813 291.828125 264.265625 298.476563 C 254.050781 307.058594 243 314.382813 230.109375 318.945313 C 232.957031 321.246094 235.214844 323.546875 237.394531 325.851563 C 248.949219 321.039063 259.863281 313.871094 270.417969 305.382813 C 273.214844 306.910156 275.320313 308.835938 276.949219 311.03125 C 277.910156 310.90625 278.40625 310.84375 279.371094 310.71875 C 279.371094 305.988281 279.835938 301.195313 279.835938 296.464844 C 320.148438 251.644531 323.421875 209.453125 322.785156 177.421875 C 312.09375 191.921875 296.972656 204.695313 272.554688 213.839844 C 268.652344 211.164063 273.820313 207.4375 272.429688 203.539063 C 271.339844 204.0625 269.832031 204.484375 267.40625 204.671875 C 267.027344 203.746094 266.652344 202.828125 266.273438 201.910156 C 267.65625 203.453125 269.707031 203.164063 272.429688 201.03125 C 285.179688 191.234375 315.085938 188.992188 327.304688 148.164063 C 324.667969 151.175781 322.03125 154.191406 319.394531 157.203125 C 319.578125 153.230469 314.261719 141.261719 310.351563 131.335938 C 307.398438 140.730469 304.371094 149.953125 299.050781 153.9375 C 300.472656 149.753906 301.894531 145.566406 303.320313 141.382813 C 299.46875 148.953125 291.597656 153.644531 289.882813 156.953125 C 288.082031 161.347656 285.691406 162.589844 282.976563 161.097656 C 277.179688 165.085938 274.28125 162.789063 280.339844 155.695313 C 291.441406 142.6875 300.988281 141.726563 307.589844 110.742188 C 305.789063 112.960938 303.988281 115.179688 302.191406 117.398438 C 298.375 113.1875 293.582031 106.355469 288.753906 99.441406 C 286.15625 104.335938 282.054688 108.5625 276.445313 112.121094 C 279.167969 110.71875 281.886719 109.839844 284.609375 110.113281 C 284.445313 113.402344 283.652344 117.039063 285.992188 118.902344 C 287.085938 128.714844 280.996094 133.363281 278.832031 139.496094 C 278.582031 141.253906 280.339844 142.847656 284.105469 144.269531 C 288.375 140.164063 292.644531 136.066406 296.914063 131.964844 C 295.429688 137.121094 289.464844 148.609375 273.933594 155.070313 C 271.800781 148.898438 274.242188 139.378906 278.957031 128.195313 C 275.570313 130.71875 271.578125 142.371094 267.78125 151.050781 C 265.519531 148.214844 265.546875 143.546875 259.621094 143.640625 C 257.402344 141.613281 256.023438 140.105469 256.480469 139.746094 C 257.84375 136.441406 258.964844 133.132813 259.996094 129.828125 C 260.039063 129.222656 259.492188 128.761719 258.867188 128.320313 C 256.265625 130.578125 254.5625 132.84375 253.464844 135.101563 C 250.460938 131.632813 248.445313 117.65625 250.953125 114.632813 C 253.472656 110.714844 254.710938 106.578125 255.222656 102.328125 C 258.21875 98.664063 262.511719 96.863281 261.503906 90.273438 C 263.945313 84.953125 266.765625 79.640625 270.042969 74.324219 C 259.945313 88.144531 249.253906 100.113281 248.695313 104.964844 C 247.929688 111.789063 247.664063 118.609375 248.066406 125.433594 C 247.480469 125.351563 246.894531 125.265625 246.308594 125.183594 C 245.839844 123.445313 245.507813 121.621094 244.175781 120.410156 C 244.601563 118.277344 244.621094 116.140625 244.046875 114.007813 C 242.527344 110.511719 241.300781 108.210938 240.28125 106.722656 C 241.132813 101.765625 235.535156 98.503906 235.507813 97.304688 C 233.507813 91.996094 235.507813 87.132813 231.742188 81.355469 C 231.871094 72.519531 232.957031 64.878906 235.761719 59.382813 C 234.855469 57.503906 219.792969 55.128906 215.792969 46.574219 C 216.378906 48.953125 217.21875 51.261719 218.304688 53.480469 C 216.183594 57.949219 213.90625 82.648438 215.542969 96.175781 Z M 288.429688 119.027344 C 289.089844 120.703125 289.992188 122.289063 291.070313 123.800781 C 295.628906 128.425781 289.519531 130.476563 287.425781 124.175781 C 286.789063 121.382813 286.519531 119.269531 287.050781 118.652344 C 287.511719 118.195313 287.972656 118.320313 288.429688 119.027344 Z M 315.027344 168.410156 C 309.285156 176.5625 303.480469 185.871094 294.042969 187.140625 C 295.234375 184.210938 305.269531 177.136719 315.027344 168.410156 Z M 268.464844 196.257813 C 268.632813 194.121094 268.800781 191.988281 268.96875 189.851563 C 269.679688 188.972656 270.390625 188.09375 271.101563 187.214844 C 270.054688 187.214844 269.007813 187.214844 267.960938 187.214844 C 273.976563 176.960938 282.757813 176.539063 291.695313 175.160156 C 293.726563 174.847656 298.226563 171.308594 301.492188 169.382813 C 299.734375 169.636719 297.976563 169.886719 296.21875 170.136719 C 298.894531 159.464844 303.792969 165.617188 307.394531 166.746094 C 305.886719 163.230469 299.859375 155.496094 303.625 151.550781 C 306.246094 150.378906 306.179688 158.203125 308.773438 165.617188 C 309.988281 165.492188 310.867188 165.867188 311.410156 166.746094 C 305.414063 175.789063 296.179688 183.425781 281.648438 188.21875 C 276.761719 189.828125 272.609375 195.460938 268.464844 196.257813 Z M 263.316406 177.296875 C 267.753906 175.203125 270.054688 170.976563 274.742188 168.003906 C 277.671875 166.328125 277.757813 165.15625 274.996094 164.488281 C 261.851563 161.347656 263.398438 157.160156 256.160156 151.929688 C 258.625 160.425781 257.308594 177.929688 263.566406 174.03125 C 264.324219 175.121094 263.902344 176.203125 263.316406 177.296875 Z M 228.785156 214.464844 C 228.492188 214.714844 228.199219 214.96875 227.90625 215.21875 C 225.6875 215.035156 223.867188 217.800781 221.75 219.679688 C 220.816406 220.507813 219.667969 222.089844 216.226563 223.632813 C 212.335938 225.371094 208.269531 230.773438 208.566406 234.808594 C 217.269531 231.160156 232.515625 231.34375 228.785156 214.464844 Z M 314.046875 227.148438 C 305.699219 240.898438 293.511719 254.890625 271.605469 253.015625 C 269.292969 252.511719 267.65625 249.328125 270.726563 248.121094 C 272.023438 248.078125 273.488281 247.199219 275.121094 245.484375 C 293.992188 246.164063 288.199219 243.59375 294.082031 239.828125 C 298.101563 239.9375 305.34375 234.746094 314.046875 227.148438 Z M 300.738281 229.410156 C 294.203125 233.746094 291.074219 243.148438 274.871094 236.316406 C 285.5 235.144531 292.492188 227.441406 300.738281 229.410156 Z M 311.285156 199.648438 C 308.324219 204.328125 304.398438 209.1875 293.707031 215.21875 C 284.371094 221.453125 293.328125 231.585938 304.757813 225.640625 C 304.609375 226.4375 304.902344 227.230469 305.257813 228.027344 C 310.863281 226.152344 311.089844 211.371094 311.285156 199.648438 Z M 297.472656 255.652344 C 292.546875 266.433594 286.957031 276.480469 279.011719 283.910156 C 276.542969 279.429688 277.714844 276.203125 273.613281 268.714844 C 272.816406 266.527344 272.035156 265.261719 274.996094 264.445313 C 284.328125 262.6875 291.820313 259.753906 297.472656 255.652344 Z M 276.125 286.039063 C 273.367188 282.71875 270.515625 279.40625 266.582031 276.246094 C 269.453125 277.785156 271.996094 278.515625 273.363281 276.371094 C 277.050781 280.703125 276.652344 283.398438 276.125 286.039063 Z M 188.214844 45.996094 C 185.839844 46.339844 183.804688 45.390625 182.261719 42.554688 C 184.8125 43.515625 186.671875 44.703125 188.214844 45.996094 Z M 184.394531 61.722656 C 185.714844 55.890625 189.0625 51.734375 189.53125 55.898438 C 189.546875 61.320313 189.15625 67.660156 185.144531 82.148438 C 182.316406 83.09375 178.71875 79.273438 181.949219 74.066406 C 183.648438 70.578125 183.820313 67.089844 184.144531 63.605469 C 182.890625 70.414063 180.785156 79.632813 177.628906 73.628906 C 178.753906 88.976563 183.269531 85.714844 189.410156 106.351563 C 195.328125 126.246094 186.933594 130.566406 189.046875 138.117188 C 202.488281 123.261719 186.570313 103.410156 187.917969 79.222656 C 187.851563 77.511719 189.375 77.597656 189.953125 79.285156 C 190.320313 80.355469 192.070313 80.15625 192.1875 77.464844 C 192.164063 72.078125 189.34375 68.972656 190.554688 54.105469 C 188.1875 52.171875 185.550781 50.644531 182.515625 49.710938 C 183.613281 53.8125 184.132813 57.789063 184.394531 61.722656 Z M 197.765625 264.945313 C 199.292969 281.144531 198.039063 294.953125 194.878906 307.140625 C 186.761719 309.648438 195.707031 311.40625 175.445313 313.164063 C 155.183594 311.40625 164.128906 309.648438 156.011719 307.140625 C 152.851563 294.953125 151.59375 281.144531 153.125 264.945313 C 148.304688 270.804688 149.699219 284.734375 152.578125 297.652344 C 156.015625 313.089844 160.75 327.535156 169.949219 327.734375 C 169.691406 326.441406 172.335938 326.597656 175.414063 326.972656 L 175.414063 326.980469 L 175.445313 326.976563 L 175.476563 326.980469 L 175.476563 326.972656 C 178.550781 326.597656 181.195313 326.441406 180.9375 327.734375 C 190.140625 327.535156 194.871094 313.089844 198.3125 297.652344 C 201.191406 284.734375 202.585938 270.804688 197.765625 264.945313 Z M 213.464844 378.464844 C 208.042969 374.574219 205.617188 369.886719 205.550781 364.652344 C 207.136719 369.46875 210.195313 373.988281 213.464844 378.464844 Z M 202.914063 316.308594 C 203.300781 324.519531 202.972656 332.058594 197.640625 334.890625 C 200.367188 332.8125 197.671875 327.878906 202.914063 316.308594 Z M 205.425781 306.136719 C 206.386719 301.488281 207.265625 296.925781 206.554688 292.449219 C 205.59375 297.011719 205.78125 301.574219 205.425781 306.136719 Z M 290.316406 76.453125 C 294.058594 66.742188 292.984375 44.929688 290.125 31.304688 C 286.328125 13.226563 279.304688 -0.00390625 278.253906 5.71875 C 280.664063 3.058594 286.683594 18.609375 289.28125 32.03125 C 293.078125 51.648438 291.464844 72.710938 290.316406 76.453125 Z M 308.261719 119.734375 C 309.382813 121.429688 309.695313 123.671875 307.136719 127.871094 C 307.410156 125.488281 308.804688 122.953125 308.261719 119.734375 Z M 175.445313 471.109375 C 240.367188 471.125 286.398438 400.460938 249.667969 340.992188 C 297.84375 314.097656 314.140625 281.222656 322.671875 262.753906 C 307.605469 292.710938 284.84375 319.0625 248.375 338.984375 C 245.976563 335.410156 243.277344 332.1875 240.292969 329.40625 C 240.167969 329.511719 240.042969 329.617188 239.917969 329.722656 C 280.878906 372.988281 258.734375 469.445313 175.445313 469.445313 C 92.15625 469.445313 70.007813 372.988281 110.972656 329.722656 C 110.847656 329.617188 110.722656 329.511719 110.597656 329.40625 C 107.613281 332.1875 104.914063 335.410156 102.515625 338.984375 C 66.046875 319.0625 43.285156 292.710938 28.21875 262.753906 C 36.75 281.222656 53.046875 314.097656 101.222656 340.992188 C 64.476563 400.484375 110.519531 471.09375 175.445313 471.109375 Z M 328.113281 250.882813 C 350.824219 197.355469 335.652344 131.089844 294.667969 86.78125 C 329.597656 126.519531 350.113281 188.761719 328.113281 250.882813 Z M 288.71875 92.539063 C 290.347656 97.726563 283.035156 98.828125 277.878906 103.320313 C 283.371094 96.929688 287.109375 99.121094 288.71875 92.539063 Z M 289.34375 85.152344 C 289.175781 90.164063 285.691406 88.933594 282.078125 92.859375 C 284.375 88.410156 287.359375 90.101563 289.34375 85.152344 Z M 72.9375 10.28125 C 74.230469 27.820313 81.179688 42.636719 100.5625 51.46875 C 84.308594 41.695313 76.792969 27.085938 72.9375 10.28125 Z M 99.824219 77.195313 C 101.519531 75.679688 102.554688 83.035156 102.765625 92.230469 C 101.40625 78.859375 99.0625 78.777344 99.824219 77.195313 Z M 62.457031 119.027344 C 61.800781 120.703125 60.894531 122.289063 59.820313 123.800781 C 55.257813 128.425781 61.371094 130.476563 63.460938 124.175781 C 64.101563 121.382813 64.371094 119.269531 63.839844 118.652344 C 63.378906 118.195313 62.917969 118.320313 62.457031 119.027344 Z M 35.859375 168.410156 C 41.605469 176.5625 47.410156 185.871094 56.847656 187.140625 C 55.65625 184.210938 45.621094 177.136719 35.859375 168.410156 Z M 82.425781 196.257813 C 82.257813 194.121094 82.089844 191.988281 81.921875 189.851563 C 81.210938 188.972656 80.5 188.09375 79.789063 187.214844 C 80.835938 187.214844 81.878906 187.214844 82.925781 187.214844 C 76.914063 176.960938 68.132813 176.539063 59.191406 175.160156 C 57.160156 174.847656 52.664063 171.308594 49.398438 169.382813 C 51.15625 169.636719 52.914063 169.886719 54.671875 170.136719 C 51.992188 159.464844 47.097656 165.617188 43.496094 166.746094 C 45.003906 163.230469 51.03125 155.496094 47.261719 151.550781 C 44.640625 150.378906 44.710938 158.203125 42.113281 165.617188 C 40.902344 165.492188 40.023438 165.867188 39.476563 166.746094 C 45.472656 175.789063 54.710938 183.425781 69.238281 188.21875 C 74.128906 189.828125 78.28125 195.460938 82.425781 196.257813 Z M 87.574219 177.296875 C 83.136719 175.203125 80.835938 170.976563 76.144531 168.003906 C 73.214844 166.328125 73.132813 165.15625 75.894531 164.488281 C 89.039063 161.347656 87.488281 157.160156 94.730469 151.929688 C 92.265625 160.425781 93.582031 177.929688 87.320313 174.03125 C 86.566406 175.121094 86.984375 176.203125 87.574219 177.296875 Z M 122.105469 214.464844 C 122.398438 214.714844 122.691406 214.96875 122.984375 215.21875 C 125.203125 215.035156 127.023438 217.800781 129.140625 219.679688 C 130.074219 220.507813 131.21875 222.089844 134.664063 223.632813 C 138.550781 225.371094 142.617188 230.773438 142.324219 234.808594 C 133.621094 231.160156 118.375 231.34375 122.105469 214.464844 Z M 36.839844 227.148438 C 45.191406 240.898438 57.378906 254.890625 79.285156 253.015625 C 81.59375 252.511719 83.230469 249.328125 80.164063 248.121094 C 78.867188 248.078125 77.402344 247.199219 75.769531 245.484375 C 56.894531 246.164063 62.691406 243.59375 56.808594 239.828125 C 52.789063 239.9375 45.546875 234.746094 36.839844 227.148438 Z M 50.152344 229.410156 C 56.6875 233.746094 59.816406 243.148438 76.019531 236.316406 C 65.386719 235.144531 58.398438 227.441406 50.152344 229.410156 Z M 39.605469 199.648438 C 42.5625 204.328125 46.492188 209.1875 57.183594 215.21875 C 66.519531 221.453125 57.558594 231.585938 46.132813 225.640625 C 46.28125 226.4375 45.988281 227.230469 45.632813 228.027344 C 40.027344 226.152344 39.796875 211.371094 39.605469 199.648438 Z M 53.417969 255.652344 C 58.34375 266.433594 63.929688 276.480469 71.875 283.910156 C 74.347656 279.429688 73.171875 276.203125 77.277344 268.714844 C 78.074219 266.527344 78.855469 265.261719 75.894531 264.445313 C 66.558594 262.6875 59.066406 259.753906 53.417969 255.652344 Z M 74.765625 286.039063 C 77.523438 282.71875 80.371094 279.40625 84.308594 276.246094 C 81.4375 277.785156 78.894531 278.515625 77.527344 276.371094 C 73.839844 280.703125 74.234375 283.398438 74.765625 286.039063 Z M 162.675781 45.996094 C 165.050781 46.339844 167.085938 45.390625 168.625 42.554688 C 166.078125 43.515625 164.21875 44.703125 162.675781 45.996094 Z M 166.496094 61.722656 C 165.171875 55.890625 161.824219 51.734375 161.359375 55.898438 C 161.339844 61.320313 161.734375 67.660156 165.746094 82.148438 C 168.574219 83.09375 172.171875 79.273438 168.9375 74.066406 C 167.242188 70.578125 167.070313 67.089844 166.746094 63.605469 C 168 70.414063 170.101563 79.632813 173.261719 73.628906 C 172.136719 88.976563 167.617188 85.714844 161.480469 106.351563 C 155.5625 126.246094 163.957031 130.566406 161.84375 138.117188 C 148.402344 123.261719 164.316406 103.410156 162.972656 79.222656 C 163.039063 77.511719 161.515625 77.597656 160.933594 79.285156 C 160.566406 80.355469 158.820313 80.15625 158.703125 77.464844 C 158.726563 72.078125 161.546875 68.972656 160.335938 54.105469 C 162.703125 52.171875 165.339844 50.644531 168.371094 49.710938 C 167.277344 53.8125 166.753906 57.789063 166.496094 61.722656 Z M 137.425781 378.464844 C 142.84375 374.574219 145.273438 369.886719 145.335938 364.652344 C 143.75 369.46875 140.695313 373.988281 137.425781 378.464844 Z M 147.972656 316.308594 C 147.589844 324.519531 147.917969 332.058594 153.25 334.890625 C 150.523438 332.8125 153.214844 327.878906 147.972656 316.308594 Z M 145.464844 306.136719 C 144.5 301.488281 143.625 296.925781 144.332031 292.449219 C 145.292969 297.011719 145.105469 301.574219 145.464844 306.136719 Z M 60.574219 76.453125 C 56.828125 66.742188 57.90625 44.929688 60.765625 31.304688 C 64.558594 13.226563 71.585938 -0.00390625 72.632813 5.71875 C 70.222656 3.058594 64.203125 18.609375 61.605469 32.03125 C 57.808594 51.648438 59.421875 72.710938 60.574219 76.453125 Z M 42.628906 119.734375 C 41.507813 121.429688 41.195313 123.671875 43.753906 127.871094 C 43.480469 125.488281 42.085938 122.953125 42.628906 119.734375 Z M 22.777344 250.882813 C 0.0664063 197.355469 15.234375 131.089844 56.222656 86.78125 C 21.292969 126.519531 0.773438 188.761719 22.777344 250.882813 Z M 62.171875 92.539063 C 60.539063 97.726563 67.855469 98.828125 73.011719 103.320313 C 67.519531 96.929688 63.78125 99.121094 62.171875 92.539063 Z M 61.546875 85.152344 C 61.710938 90.164063 65.199219 88.933594 68.8125 92.859375 C 66.515625 88.410156 63.53125 90.101563 61.546875 85.152344 Z M 61.546875 85.152344 "/>
</g>
</g>
</svg>
