<?xml version="1.0" encoding="UTF-8"?>
<svg xmlns="http://www.w3.org/2000/svg" xmlns:xlink="http://www.w3.org/1999/xlink" width="511.3pt" height="572.5pt" viewBox="0 0 511.3 572.5" version="1.1">
<defs>
<clipPath id="clip1">
  <path d="M 102 79 L 511.300781 79 L 511.300781 487 L 102 487 Z M 102 79 "/>
</clipPath>
<clipPath id="clip2">
  <path d="M 230 326 L 279 326 L 279 572.5 L 230 572.5 Z M 230 326 "/>
</clipPath>
</defs>
<g id="surface1">
<path style=" stroke:none;fill-rule:evenodd;fill:rgb(10.594177%,9.812927%,9.423828%);fill-opacity:1;" d="M 257.113281 -0.00390625 C 259.480469 0.46875 261.355469 2.132813 263.722656 2.605469 C 257.09375 8.757813 256.148438 15.859375 259.933594 24.855469 C 265.140625 20.121094 270.347656 14.914063 275.554688 9.703125 C 272.714844 17.753906 270.347656 26.277344 267.980469 34.796875 C 259.933594 34.796875 251.886719 34.796875 243.367188 34.796875 C 240.996094 25.800781 238.632813 17.28125 236.265625 8.757813 C 240.523438 13.96875 244.785156 19.175781 249.046875 24.382813 C 251.414063 16.808594 253.78125 8.757813 248.101563 1.660156 Z M 257.113281 -0.00390625 "/>
<path style=" stroke:none;fill-rule:evenodd;fill:rgb(10.594177%,9.812927%,9.423828%);fill-opacity:1;" d="M 235.789063 38.109375 C 249.046875 37.164063 262.773438 37.164063 276.027344 38.109375 C 273.1875 42.84375 270.820313 47.578125 267.980469 52.3125 C 263.246094 82.609375 263.722656 113.378906 263.246094 143.679688 C 261.828125 155.039063 269.402344 164.507813 274.609375 173.976563 C 267.980469 177.761719 261.828125 182.023438 255.199219 185.808594 C 249.046875 182.023438 242.890625 177.761719 236.738281 173.496094 C 240.523438 165.453125 248.101563 158.351563 247.621094 148.886719 C 248.101563 120.007813 247.621094 91.605469 245.257813 62.726563 C 244.785156 53.730469 239.105469 46.160156 235.789063 38.109375 Z M 235.789063 38.109375 "/>
<g clip-path="url(#clip1)" clip-rule="nonzero">
<path style=" stroke:none;fill-rule:evenodd;fill:rgb(10.594177%,9.812927%,9.423828%);fill-opacity:1;" d="M 150.578125 85.921875 C 167.148438 78.820313 185.136719 79.296875 202.179688 80.714844 C 198.867188 85.921875 195.550781 91.132813 191.765625 96.339844 C 190.34375 94.445313 187.976563 90.65625 186.558594 88.765625 C 174.246094 92.550781 160.519531 95.867188 154.367188 108.171875 C 164.308594 111.011719 174.722656 113.378906 185.136719 115.273438 C 170.9375 117.164063 156.734375 118.113281 142.53125 119.535156 C 128.328125 139.890625 127.382813 166.871094 140.636719 187.703125 C 181.824219 257.765625 266.089844 286.644531 310.585938 354.339844 C 320.054688 349.132813 332.835938 345.34375 334.730469 333.035156 C 337.097656 317.414063 332.835938 301.789063 331.890625 286.171875 C 356.035156 279.070313 380.175781 270.074219 400.53125 254.925781 C 432.722656 233.148438 453.078125 199.066406 472.015625 165.929688 C 470.121094 195.277344 469.175781 226.046875 453.554688 252.085938 C 436.984375 277.175781 407.632813 289.953125 382.070313 303.210938 C 425.148438 301.789063 469.648438 304.632813 511.308594 290.429688 L 511.308594 299.898438 L 511.308594 294.21875 C 498.996094 307.945313 485.269531 322.148438 466.335938 326.410156 C 437.933594 333.984375 409.054688 325.460938 380.648438 321.675781 C 414.734375 350.550781 455.921875 368.539063 497.105469 384.164063 C 468.226563 385.585938 437.929688 384.636719 410.945313 371.855469 C 396.746094 365.226563 384.910156 354.8125 372.128906 345.34375 C 383.492188 375.640625 402.898438 402.152344 430.828125 418.722656 C 401.007813 415.40625 378.28125 395.523438 357.925781 375.640625 C 359.347656 390.789063 362.1875 404.992188 366.449219 419.664063 C 351.300781 409.253906 342.304688 393.15625 339.9375 375.164063 C 338.519531 384.164063 337.570313 393.632813 333.785156 402.621094 C 329.050781 391.265625 334.730469 370.433594 319.109375 367.121094 C 321.949219 382.269531 326.683594 397.414063 323.84375 413.039063 C 318.636719 442.390625 299.699219 467.480469 277.449219 486.414063 C 278.871094 475.054688 279.34375 463.21875 282.65625 451.859375 C 289.757813 438.128906 301.59375 425.824219 301.59375 409.253906 C 303.011719 378.007813 277.921875 354.8125 256.148438 336.824219 C 204.074219 295.636719 143.003906 258.238281 112.234375 196.699219 C 96.140625 167.347656 101.820313 129.476563 124.539063 105.328125 C 117.441406 104.859375 109.867188 103.914063 102.765625 103.4375 C 119.808594 100.597656 134.953125 92.550781 150.578125 85.921875 Z M 150.578125 85.921875 "/>
</g>
<path style=" stroke:none;fill-rule:evenodd;fill:rgb(10.594177%,9.812927%,9.423828%);fill-opacity:1;" d="M 309.164063 81.1875 C 330.945313 78.351563 353.664063 80.714844 373.074219 91.605469 C 383.964844 98.230469 396.273438 100.597656 408.578125 103.4375 C 403.371094 103.914063 392.953125 104.859375 388.226563 105.328125 C 406.6875 129.003906 414.261719 161.664063 401.953125 190.070313 C 380.175781 242.144531 332.835938 276.703125 290.230469 310.3125 C 291.175781 295.636719 292.597656 281.4375 294.019531 266.761719 C 326.210938 239.777344 362.660156 212.789063 377.808594 171.609375 C 384.910156 153.617188 377.808594 135.15625 368.339844 119.535156 C 354.613281 118.113281 340.410156 117.164063 326.683594 114.800781 C 337.097656 111.960938 350.824219 113.855469 356.035156 102.492188 C 345.144531 96.8125 329.996094 83.554688 318.632813 95.390625 C 316.269531 91.605469 311.535156 84.503906 309.164063 81.1875 Z M 309.164063 81.1875 "/>
<path style=" stroke:none;fill-rule:evenodd;fill:rgb(10.594177%,9.812927%,9.423828%);fill-opacity:1;" d="M 38.859375 165.929688 C 56.847656 197.171875 76.257813 229.363281 106.078125 251.140625 C 127.382813 268.183594 152.945313 278.597656 178.984375 286.171875 C 178.039063 301.789063 174.246094 317.414063 176.617188 333.035156 C 178.507813 344.871094 190.816406 349.132813 199.339844 355.285156 C 206.914063 345.34375 214.015625 335.878906 222.0625 326.882813 C 223.007813 338.246094 224.429688 350.078125 223.953125 361.914063 C 219.695313 378.007813 206.914063 391.738281 209.753906 409.253906 C 209.753906 425.824219 221.589844 438.128906 228.691406 452.328125 C 232.003906 464.164063 232.476563 476.476563 233.898438 488.308594 C 214.015625 468.902344 194.605469 446.179688 188.453125 417.773438 C 183.71875 399.785156 191.289063 381.796875 191.289063 363.808594 C 178.984375 373.273438 179.929688 390.316406 176.617188 403.574219 C 174.722656 394.105469 172.828125 384.636719 171.410156 374.695313 C 169.039063 393.15625 159.574219 409.253906 144.898438 420.140625 C 148.6875 405.464844 151.996094 390.789063 152.945313 375.640625 C 132.589844 395.996094 109.867188 415.40625 80.039063 419.195313 C 107.972656 402.621094 127.382813 375.640625 139.21875 345.816406 C 123.597656 357.179688 108.921875 369.488281 90.929688 376.117188 C 66.789063 384.164063 41.226563 385.585938 16.609375 385.109375 C 55.902344 367.121094 97.558594 350.550781 130.695313 321.203125 C 102.765625 325.933594 73.414063 333.511719 45.484375 326.882813 C 26.546875 321.675781 12.347656 307.472656 0.0390625 293.269531 L 0.0390625 289.953125 C 41.226563 306.054688 85.722656 301.789063 128.804688 303.210938 C 105.605469 291.378906 80.988281 280.015625 63.472656 259.660156 C 42.167969 233.621094 40.746094 198.121094 38.859375 165.929688 Z M 38.859375 165.929688 "/>
<path style=" stroke:none;fill-rule:evenodd;fill:rgb(10.594177%,9.812927%,9.423828%);fill-opacity:1;" d="M 155.3125 195.753906 C 156.734375 180.601563 175.195313 169.714844 189.398438 176.34375 C 205.964844 182.496094 225.847656 170.1875 240.523438 182.023438 C 245.734375 185.335938 250.464844 188.652344 255.671875 192.4375 C 263.722656 187.230469 270.820313 181.550781 279.34375 177.289063 C 292.121094 176.34375 305.378906 178.234375 318.632813 178.710938 C 331.414063 167.820313 353.191406 179.183594 355.558594 194.804688 C 344.199219 182.496094 327.15625 188.175781 312.480469 187.703125 C 301.121094 186.757813 290.703125 191.964844 280.761719 196.699219 L 278.871094 200.011719 C 278.871094 203.324219 278.871094 209.953125 278.871094 213.265625 C 281.238281 214.6875 286.445313 217.054688 289.285156 218.476563 C 278.394531 231.257813 265.613281 242.617188 255.671875 256.347656 C 245.257813 242.617188 233.898438 230.308594 221.113281 219.421875 C 223.953125 217.996094 229.636719 214.6875 232.949219 213.265625 C 232.476563 208.058594 232.476563 202.378906 232.003906 196.699219 C 211.648438 184.863281 187.976563 187.703125 165.253906 187.230469 C 162.886719 189.597656 157.679688 193.859375 155.3125 195.753906 Z M 155.3125 195.753906 "/>
<path style=" stroke:none;fill-rule:evenodd;fill:rgb(10.594177%,9.812927%,9.423828%);fill-opacity:1;" d="M 221.589844 227.46875 C 233.425781 237.410156 243.367188 248.773438 252.828125 261.078125 C 252.828125 269.128906 252.828125 277.175781 252.828125 284.746094 C 243.839844 277.648438 234.371094 270.074219 224.429688 262.972656 C 223.480469 251.140625 222.535156 239.304688 221.589844 227.46875 Z M 221.589844 227.46875 "/>
<path style=" stroke:none;fill-rule:evenodd;fill:rgb(10.594177%,9.812927%,9.423828%);fill-opacity:1;" d="M 258.039063 262.027344 C 267.507813 249.246094 277.921875 237.410156 289.757813 226.996094 C 287.863281 254.453125 284.078125 281.910156 282.65625 309.367188 C 275.078125 303.210938 266.5625 297.058594 259.933594 289.953125 C 256.621094 280.964844 258.988281 271.019531 258.039063 262.027344 Z M 258.039063 262.027344 "/>
<g clip-path="url(#clip2)" clip-rule="nonzero">
<path style=" stroke:none;fill-rule:evenodd;fill:rgb(10.594177%,9.812927%,9.423828%);fill-opacity:1;" d="M 230.578125 326.410156 C 239.105469 333.035156 247.621094 340.136719 256.148438 347.710938 C 263.722656 354.8125 273.664063 360.96875 278.394531 370.433594 C 277.449219 411.621094 274.136719 452.328125 268.453125 493.039063 C 266.089844 512.453125 259.460938 552.523438 258.039063 572.40625 L 252.828125 550.796875 C 250.464844 527.128906 243.367188 503.933594 240.523438 479.789063 C 233.898438 429.136719 232.949219 377.535156 230.578125 326.410156 Z M 230.578125 326.410156 "/>
</g>
</g>
</svg>
